# Blender v2.93.3 OBJ File: ''
# www.blender.org
mtllib dome.mtl
o 5w028dwt8rxa
v 0.000800 82.409607 -90.083702
v -27.837399 82.409599 -85.674500
v 0.000800 96.677399 0.000004
v -52.950298 82.409599 -72.879303
v 27.836599 82.409599 -85.674500
v 0.000800 41.002708 -171.349197
v -52.950298 41.002708 -162.962906
v -72.878998 82.409599 -52.949894
v -100.717201 41.002708 -138.624405
v 52.950298 82.409599 -72.879303
v 52.950298 41.002708 -162.962906
v 0.000800 -23.490089 -235.842102
v -72.878998 -23.490089 -224.299103
v -85.675797 82.409599 -27.837395
v -138.624603 41.002705 -100.716698
v -138.624603 -23.490091 -190.800293
v 72.878998 82.409599 -52.949894
v 100.717201 41.002708 -138.624405
v 72.878998 -23.490089 -224.299103
v -85.675797 -104.755684 -263.679504
v 0.000800 -104.755684 -277.248901
v -90.082596 82.409599 0.000004
v -162.963104 41.002705 -52.949898
v -190.801208 -23.490093 -138.624405
v -162.963104 -104.755692 -224.299103
v 85.675003 82.409599 -27.837395
v 138.624603 41.002705 -100.716698
v 138.624603 -23.490091 -190.800293
v 85.675003 -104.755684 -263.679504
v -85.675797 82.409599 27.837303
v -171.350098 41.002701 0.000002
v -224.298904 -23.490095 -72.879303
v -224.298904 -104.755692 -162.962906
v 90.084801 82.409599 0.000004
v 162.963104 41.002705 -52.949898
v 190.801208 -23.490093 -138.624405
v 162.963104 -104.755692 -224.299103
v -72.878998 82.409599 52.949802
v -162.963104 41.002697 52.949799
v -235.842896 -23.490099 -0.000001
v -263.678680 -104.755699 -85.674507
v 85.675003 82.409599 27.837303
v 171.350098 41.002701 0.000002
v 224.298904 -23.490095 -72.879303
v 224.298904 -104.755692 -162.962906
v -52.950298 82.409599 72.879097
v -138.624603 41.002697 100.716492
v -224.298904 -23.490103 72.879097
v -277.249908 -104.755699 -0.000105
v 72.878998 82.409599 52.949802
v 162.963104 41.002697 52.949799
v 235.842896 -23.490099 -0.000001
v 263.678680 -104.755699 -85.674507
v -27.837399 82.409599 85.674599
v -100.717201 41.002594 138.624496
v -190.801208 -23.490105 138.624496
v -263.678680 -104.755699 85.674591
v 52.950298 82.409599 72.879097
v 138.624603 41.002697 100.716492
v 224.298904 -23.490103 72.879097
v 277.249908 -104.755699 -0.000105
v 0.000800 82.409592 90.083603
v -52.950298 41.002594 162.962799
v -138.624603 -23.490107 190.800201
v -224.298904 -104.755806 162.962799
v 27.836599 82.409599 85.674599
v 100.717201 41.002594 138.624496
v 190.801208 -23.490105 138.624496
v 263.678680 -104.755699 85.674591
v 0.000800 41.002594 171.349304
v -72.878998 -23.490108 224.299103
v -162.963104 -104.755806 224.299103
v 52.950298 41.002594 162.962799
v 138.624603 -23.490107 190.800201
v 224.298904 -104.755806 162.962799
v 0.000800 -23.490108 235.841995
v -85.675797 -104.755814 263.679504
v 72.878998 -23.490108 224.299103
v 162.963104 -104.755806 224.299103
v 0.000800 -104.755814 277.248993
v 85.675003 -104.755814 263.679504
vt 0.502315 0.660557
vt 0.453564 0.652835
vt 0.502315 0.502794
vt 0.409585 0.630427
vt 0.551066 0.652835
vt 0.502315 0.802876
vt 0.409585 0.788189
vt 0.374683 0.595525
vt 0.325932 0.745565
vt 0.595046 0.630427
vt 0.595046 0.788189
vt 0.502315 0.915821
vt 0.374683 0.895606
vt 0.352274 0.551546
vt 0.259544 0.679178
vt 0.259544 0.836940
vt 0.629947 0.595525
vt 0.678699 0.745565
vt 0.629947 0.895606
vt 0.352274 0.964572
vt 0.502315 0.988337
vt 0.344553 0.502794
vt 0.216921 0.595525
vt 0.168169 0.745565
vt 0.216921 0.895606
vt 0.652356 0.551546
vt 0.745086 0.679178
vt 0.745086 0.836940
vt 0.652356 0.964572
vt 0.352274 0.454043
vt 0.202234 0.502794
vt 0.109503 0.630427
vt 0.109503 0.788189
vt 0.660077 0.502794
vt 0.787710 0.595525
vt 0.836461 0.745565
vt 0.787710 0.895606
vt 0.374683 0.410064
vt 0.216921 0.410064
vt 0.089288 0.502794
vt 0.040537 0.652835
vt 0.652356 0.454043
vt 0.802397 0.502794
vt 0.895127 0.630427
vt 0.895127 0.788189
vt 0.409585 0.375162
vt 0.259544 0.326411
vt 0.109503 0.375162
vt 0.016773 0.502794
vt 0.629947 0.410064
vt 0.787710 0.410064
vt 0.915342 0.502794
vt 0.964093 0.652835
vt 0.453564 0.352754
vt 0.325932 0.260023
vt 0.168169 0.260023
vt 0.040537 0.352754
vt 0.595046 0.375162
vt 0.745086 0.326411
vt 0.895127 0.375162
vt 0.987857 0.502794
vt 0.502315 0.345032
vt 0.409585 0.217400
vt 0.259544 0.168649
vt 0.109503 0.217400
vt 0.551066 0.352754
vt 0.678699 0.260023
vt 0.836461 0.260023
vt 0.964093 0.352754
vt 0.502315 0.202713
vt 0.374683 0.109982
vt 0.216921 0.109982
vt 0.595046 0.217400
vt 0.745086 0.168649
vt 0.895127 0.217400
vt 0.502315 0.089767
vt 0.352274 0.041016
vt 0.629947 0.109982
vt 0.787710 0.109982
vt 0.502315 0.017252
vt 0.652356 0.041016
vn 0.0000 0.9464 -0.3230
vn -0.0998 0.9464 -0.3072
vn 0.0000 1.0000 0.0000
vn -0.1899 0.9464 -0.2613
vn 0.0998 0.9464 -0.3072
vn 0.0000 0.8016 -0.5978
vn -0.1847 0.8016 -0.5686
vn -0.2613 0.9464 -0.1899
vn -0.3514 0.8016 -0.4837
vn 0.1899 0.9464 -0.2613
vn 0.1847 0.8016 -0.5686
vn 0.0000 0.5805 -0.8143
vn -0.2516 0.5805 -0.7744
vn -0.3072 0.9464 -0.0998
vn -0.4836 0.8016 -0.3514
vn -0.4786 0.5805 -0.6588
vn 0.2613 0.9464 -0.1899
vn 0.3514 0.8016 -0.4837
vn 0.2516 0.5805 -0.7744
vn -0.2753 0.4540 -0.8474
vn 0.0000 0.4540 -0.8910
vn -0.3230 0.9464 0.0000
vn -0.5686 0.8016 -0.1847
vn -0.6588 0.5805 -0.4786
vn -0.5237 0.4540 -0.7208
vn 0.3072 0.9464 -0.0998
vn 0.4836 0.8016 -0.3514
vn 0.4786 0.5805 -0.6588
vn 0.2753 0.4540 -0.8474
vn -0.3072 0.9464 0.0998
vn -0.5978 0.8016 -0.0000
vn -0.7744 0.5805 -0.2516
vn -0.7208 0.4540 -0.5237
vn 0.3230 0.9464 0.0000
vn 0.5686 0.8016 -0.1847
vn 0.6588 0.5805 -0.4786
vn 0.5237 0.4540 -0.7208
vn -0.2613 0.9464 0.1899
vn -0.5686 0.8016 0.1847
vn -0.8143 0.5805 -0.0000
vn -0.8474 0.4540 -0.2753
vn 0.3072 0.9464 0.0998
vn 0.5978 0.8016 -0.0000
vn 0.7744 0.5805 -0.2516
vn 0.7208 0.4540 -0.5237
vn -0.1899 0.9464 0.2613
vn -0.4836 0.8016 0.3514
vn -0.7744 0.5805 0.2516
vn -0.8910 0.4540 -0.0000
vn 0.2613 0.9464 0.1899
vn 0.5686 0.8016 0.1847
vn 0.8143 0.5805 -0.0000
vn 0.8474 0.4540 -0.2753
vn -0.0998 0.9464 0.3072
vn -0.3514 0.8016 0.4837
vn -0.6588 0.5805 0.4786
vn -0.8474 0.4540 0.2753
vn 0.1899 0.9464 0.2613
vn 0.4836 0.8016 0.3514
vn 0.7744 0.5805 0.2516
vn 0.8910 0.4540 -0.0000
vn 0.0000 0.9464 0.3230
vn -0.1847 0.8016 0.5686
vn -0.4786 0.5805 0.6588
vn -0.7208 0.4540 0.5237
vn 0.0998 0.9464 0.3072
vn 0.3514 0.8016 0.4837
vn 0.6588 0.5805 0.4786
vn 0.8474 0.4540 0.2753
vn 0.0000 0.8016 0.5978
vn -0.2516 0.5805 0.7744
vn -0.5237 0.4540 0.7208
vn 0.1847 0.8016 0.5686
vn 0.4786 0.5805 0.6588
vn 0.7208 0.4540 0.5237
vn 0.0000 0.5805 0.8143
vn -0.2753 0.4540 0.8474
vn 0.2516 0.5805 0.7744
vn 0.5237 0.4540 0.7208
vn 0.0000 0.4540 0.8910
vn 0.2753 0.4540 0.8474
usemtl sky
s 1
f 1/1/1 2/2/2 3/3/3
f 3/3/3 2/2/2 4/4/4
f 5/5/5 1/1/1 3/3/3
f 2/2/2 6/6/6 7/7/7
f 6/6/6 2/2/2 1/1/1
f 3/3/3 4/4/4 8/8/8
f 4/4/4 7/7/7 9/9/9
f 7/7/7 4/4/4 2/2/2
f 10/10/10 5/5/5 3/3/3
f 5/5/5 6/6/6 1/1/1
f 6/6/6 5/5/5 11/11/11
f 7/7/7 12/12/12 13/13/13
f 12/12/12 7/7/7 6/6/6
f 3/3/3 8/8/8 14/14/14
f 8/8/8 9/9/9 15/15/15
f 9/9/9 8/8/8 4/4/4
f 9/9/9 13/13/13 16/16/16
f 13/13/13 9/9/9 7/7/7
f 17/17/17 10/10/10 3/3/3
f 10/10/10 11/11/11 5/5/5
f 11/11/11 10/10/10 18/18/18
f 6/6/6 19/19/19 12/12/12
f 19/19/19 6/6/6 11/11/11
f 20/20/20 12/12/12 21/21/21
f 12/12/12 20/20/20 13/13/13
f 3/3/3 14/14/14 22/22/22
f 14/14/14 15/15/15 23/23/23
f 15/15/15 14/14/14 8/8/8
f 15/15/15 16/16/16 24/24/24
f 16/16/16 15/15/15 9/9/9
f 16/16/16 20/20/20 25/25/25
f 20/20/20 16/16/16 13/13/13
f 26/26/26 17/17/17 3/3/3
f 17/17/17 18/18/18 10/10/10
f 18/18/18 17/17/17 27/27/27
f 18/18/18 19/19/19 11/11/11
f 19/19/19 18/18/18 28/28/28
f 12/12/12 29/29/29 21/21/21
f 29/29/29 12/12/12 19/19/19
f 3/3/3 22/22/22 30/30/30
f 22/22/22 23/23/23 31/31/31
f 23/23/23 22/22/22 14/14/14
f 23/23/23 24/24/24 32/32/32
f 24/24/24 23/23/23 15/15/15
f 16/16/16 33/33/33 24/24/24
f 33/33/33 16/16/16 25/25/25
f 34/34/34 26/26/26 3/3/3
f 26/26/26 27/27/27 17/17/17
f 27/27/27 26/26/26 35/35/35
f 27/27/27 28/28/28 18/18/18
f 28/28/28 27/27/27 36/36/36
f 19/19/19 37/37/37 29/29/29
f 37/37/37 19/19/19 28/28/28
f 3/3/3 30/30/30 38/38/38
f 39/39/39 22/22/22 31/31/31
f 22/22/22 39/39/39 30/30/30
f 31/31/31 32/32/32 40/40/40
f 32/32/32 31/31/31 23/23/23
f 24/24/24 41/41/41 32/32/32
f 41/41/41 24/24/24 33/33/33
f 34/34/34 3/3/3 42/42/42
f 34/34/34 35/35/35 26/26/26
f 35/35/35 34/34/34 43/43/43
f 35/35/35 36/36/36 27/27/27
f 36/36/36 35/35/35 44/44/44
f 45/45/45 28/28/28 36/36/36
f 28/28/28 45/45/45 37/37/37
f 3/3/3 38/38/38 46/46/46
f 47/47/47 30/30/30 39/39/39
f 30/30/30 47/47/47 38/38/38
f 39/39/39 40/40/40 48/48/48
f 40/40/40 39/39/39 31/31/31
f 40/40/40 41/41/41 49/49/49
f 41/41/41 40/40/40 32/32/32
f 42/42/42 3/3/3 50/50/50
f 51/51/51 34/34/34 42/42/42
f 34/34/34 51/51/51 43/43/43
f 43/43/43 44/44/44 35/35/35
f 44/44/44 43/43/43 52/52/52
f 53/53/53 36/36/36 44/44/44
f 36/36/36 53/53/53 45/45/45
f 3/3/3 46/46/46 54/54/54
f 55/55/55 38/38/38 47/47/47
f 38/38/38 55/55/55 46/46/46
f 56/56/56 39/39/39 48/48/48
f 39/39/39 56/56/56 47/47/47
f 48/48/48 49/49/49 57/57/57
f 49/49/49 48/48/48 40/40/40
f 50/50/50 3/3/3 58/58/58
f 59/59/59 42/42/42 50/50/50
f 42/42/42 59/59/59 51/51/51
f 52/52/52 51/51/51 60/60/60
f 51/51/51 52/52/52 43/43/43
f 53/53/53 52/52/52 61/61/61
f 52/52/52 53/53/53 44/44/44
f 3/3/3 54/54/54 62/62/62
f 63/63/63 46/46/46 55/55/55
f 46/46/46 63/63/63 54/54/54
f 64/64/64 47/47/47 56/56/56
f 47/47/47 64/64/64 55/55/55
f 56/56/56 57/57/57 65/65/65
f 57/57/57 56/56/56 48/48/48
f 58/58/58 3/3/3 66/66/66
f 67/67/67 50/50/50 58/58/58
f 50/50/50 67/67/67 59/59/59
f 68/68/68 51/51/51 59/59/59
f 51/51/51 68/68/68 60/60/60
f 61/61/61 60/60/60 69/69/69
f 60/60/60 61/61/61 52/52/52
f 66/66/66 3/3/3 62/62/62
f 70/70/70 54/54/54 63/63/63
f 54/54/54 70/70/70 62/62/62
f 71/71/71 55/55/55 64/64/64
f 55/55/55 71/71/71 63/63/63
f 64/64/64 65/65/65 72/72/72
f 65/65/65 64/64/64 56/56/56
f 73/73/73 58/58/58 66/66/66
f 58/58/58 73/73/73 67/67/67
f 74/74/74 59/59/59 67/67/67
f 59/59/59 74/74/74 68/68/68
f 69/69/69 68/68/68 75/75/75
f 68/68/68 69/69/69 60/60/60
f 73/73/73 62/62/62 70/70/70
f 62/62/62 73/73/73 66/66/66
f 76/76/76 63/63/63 71/71/71
f 63/63/63 76/76/76 70/70/70
f 77/77/77 64/64/64 72/72/72
f 64/64/64 77/77/77 71/71/71
f 78/78/78 67/67/67 73/73/73
f 67/67/67 78/78/78 74/74/74
f 68/68/68 79/79/79 75/75/75
f 79/79/79 68/68/68 74/74/74
f 78/78/78 70/70/70 76/76/76
f 70/70/70 78/78/78 73/73/73
f 76/76/76 77/77/77 80/80/80
f 77/77/77 76/76/76 71/71/71
f 74/74/74 81/81/81 79/79/79
f 81/81/81 74/74/74 78/78/78
f 78/78/78 80/80/80 81/81/81
f 80/80/80 78/78/78 76/76/76
